<svg width="428" height="70" viewBox="0 0 428 70" fill="none" xmlns="http://www.w3.org/2000/svg">
<mask id="mask0_628_1177" style="mask-type:luminance" maskUnits="userSpaceOnUse" x="0" y="4" width="65" height="66">
<path d="M29.3333 61.8586C44.9817 61.8586 57.6667 49.1736 57.6667 33.5252C57.6667 17.8769 44.9817 5.19189 29.3333 5.19189C13.685 5.19189 1 17.8769 1 33.5252C1 49.1736 13.685 61.8586 29.3333 61.8586Z" fill="white" stroke="white" stroke-width="2" stroke-linejoin="round"/>
<path d="M38.7617 22.4302C37.5246 21.1906 36.0549 20.2075 34.437 19.5374C32.819 18.8673 31.0846 18.5233 29.3334 18.5252C27.5821 18.5233 25.8477 18.8673 24.2298 19.5374C22.6118 20.2075 21.1421 21.1906 19.905 22.4302" fill="white"/>
<path d="M38.7617 22.4302C37.5246 21.1906 36.0549 20.2075 34.437 19.5374C32.819 18.8673 31.0846 18.5233 29.3334 18.5252C27.5821 18.5233 25.8477 18.8673 24.2298 19.5374C22.6118 20.2075 21.1421 21.1906 19.905 22.4302" stroke="black" stroke-width="2" stroke-linecap="round" stroke-linejoin="round"/>
<path d="M49.7034 53.8953L63.845 68.0369Z" fill="white"/>
<path d="M49.7034 53.8953L63.845 68.0369" stroke="white" stroke-width="2" stroke-linecap="round" stroke-linejoin="round"/>
</mask>
<g mask="url(#mask0_628_1177)">
<path d="M-5.66663 -1.47485H74.3334V78.5251H-5.66663V-1.47485Z" fill="url(#paint0_linear_628_1177)"/>
</g>
<path fill-rule="evenodd" clip-rule="evenodd" d="M68.9627 1.91147C68.8924 0.373476 67.1836 -0.511662 65.8868 0.318223L54.8682 7.36962C53.5714 8.19951 53.6592 10.122 55.0263 10.8301L58.1039 12.4242L45.3231 35.7367L31.6044 31.1327C31.2512 30.8021 30.8243 30.5546 30.3556 30.4088C29.8869 30.263 29.3888 30.2228 28.8988 30.291C28.4087 30.3593 27.9394 30.5344 27.5263 30.803C27.1132 31.0717 26.767 31.4269 26.5137 31.842L12.8662 54.1699C12.4226 54.8979 12.2928 55.7632 12.5054 56.5752C12.718 57.3872 13.2556 58.0796 14 58.4999C14.7443 58.9203 15.6344 59.0342 16.4744 58.8166C17.3144 58.599 18.0356 58.0678 18.4792 57.3398L30 38.4999L43.8632 43.2382C44.2254 43.5773 44.6651 43.8289 45.1476 43.9731C45.6301 44.1172 46.1421 44.15 46.6431 44.0688C47.1441 43.9876 47.6204 43.7947 48.0343 43.5053C48.4482 43.2159 48.7883 42.838 49.0278 42.4014L63.835 15.3927L66.6423 16.8468C68.0094 17.5549 69.6304 16.5176 69.5601 14.9796L68.9627 1.91147Z" fill="white"/>
<path d="M100.583 45H86.8425C86.491 45 86.1101 44.9609 85.7 44.8828C85.2996 44.7949 84.8992 44.6631 84.4988 44.4873C84.1082 44.3115 83.7322 44.0869 83.3708 43.8135C83.0095 43.5303 82.6873 43.1934 82.4041 42.8027C82.1306 42.4023 81.9109 41.9434 81.7449 41.4258C81.5789 40.8984 81.4958 40.3076 81.4958 39.6533V29.3408C81.4958 28.9893 81.5349 28.6133 81.613 28.2129C81.7009 27.8027 81.8328 27.4023 82.0085 27.0117C82.1843 26.6113 82.4138 26.2305 82.697 25.8691C82.9802 25.5078 83.3171 25.1904 83.7078 24.917C84.1082 24.6338 84.5671 24.4092 85.0847 24.2432C85.6023 24.0771 86.1882 23.9941 86.8425 23.9941H100.583V27.8027H86.8425C86.3445 27.8027 85.9636 27.9346 85.7 28.1982C85.4363 28.4619 85.3044 28.8525 85.3044 29.3701V39.6533C85.3044 40.1416 85.4363 40.5225 85.7 40.7959C85.9734 41.0596 86.3542 41.1914 86.8425 41.1914H100.583V45ZM120.321 39.7559C120.321 40.2832 120.228 40.8545 120.043 41.4697C119.857 42.0752 119.555 42.6416 119.135 43.1689C118.725 43.6865 118.183 44.1211 117.509 44.4727C116.845 44.8242 116.034 45 115.077 45H108.207C107.68 45 107.108 44.9072 106.493 44.7217C105.888 44.5361 105.321 44.2383 104.794 43.8281C104.276 43.4082 103.842 42.8662 103.49 42.2021C103.139 41.5283 102.963 40.7129 102.963 39.7559C102.963 39.2285 103.056 38.6572 103.241 38.042C103.427 37.4268 103.725 36.8604 104.135 36.3428C104.555 35.8154 105.097 35.376 105.761 35.0244C106.435 34.6729 107.25 34.4971 108.207 34.4971H115.077V38.1299H108.207C107.689 38.1299 107.289 38.291 107.006 38.6133C106.723 38.9258 106.581 39.3164 106.581 39.7852C106.581 40.2832 106.742 40.6738 107.064 40.957C107.396 41.2305 107.787 41.3672 108.236 41.3672H115.077C115.595 41.3672 115.995 41.2109 116.278 40.8984C116.561 40.5859 116.703 40.1953 116.703 39.7266V34.4092C116.703 33.9111 116.547 33.5156 116.234 33.2227C115.932 32.9297 115.546 32.7832 115.077 32.7832H106.713V29.165H115.077C115.604 29.165 116.171 29.2578 116.776 29.4434C117.392 29.6289 117.958 29.9316 118.476 30.3516C119.003 30.7617 119.442 31.3037 119.794 31.9775C120.145 32.6416 120.321 33.4521 120.321 34.4092V39.7559ZM139.21 45H128.883C128.356 45 127.779 44.9072 127.154 44.7217C126.529 44.5361 125.948 44.2334 125.411 43.8135C124.884 43.3838 124.44 42.832 124.078 42.1582C123.727 41.4746 123.551 40.6396 123.551 39.6533V34.4971C123.551 34.1357 123.59 33.7549 123.668 33.3545C123.756 32.9541 123.888 32.5586 124.064 32.168C124.239 31.7676 124.464 31.3867 124.737 31.0254C125.021 30.6641 125.358 30.3467 125.748 30.0732C126.149 29.7998 126.608 29.5801 127.125 29.4141C127.643 29.248 128.229 29.165 128.883 29.165H139.21V32.9736H128.883C128.385 32.9736 128.004 33.1006 127.74 33.3545C127.486 33.6084 127.36 33.999 127.36 34.5264V39.6533C127.36 40.1514 127.491 40.5322 127.755 40.7959C128.019 41.0596 128.404 41.1914 128.912 41.1914H139.21V45ZM160.267 45H156.458V34.4971C156.458 33.999 156.331 33.623 156.077 33.3691C155.824 33.1055 155.443 32.9736 154.935 32.9736H148.065V29.165H154.935C155.296 29.165 155.677 29.209 156.077 29.2969C156.478 29.375 156.873 29.502 157.264 29.6777C157.664 29.8535 158.045 30.083 158.407 30.3662C158.768 30.6396 159.085 30.9766 159.359 31.377C159.632 31.7676 159.852 32.2217 160.018 32.7393C160.184 33.2568 160.267 33.8428 160.267 34.4971V45ZM146.527 45H142.718V22.4707H146.527V45ZM181.089 34.4092C181.089 34.9365 180.997 35.5078 180.811 36.123C180.626 36.7285 180.323 37.2949 179.903 37.8223C179.493 38.3398 178.951 38.7744 178.277 39.126C177.613 39.4775 176.802 39.6533 175.845 39.6533H168.975V36.0352H175.845C176.363 36.0352 176.763 35.8789 177.046 35.5664C177.33 35.2441 177.471 34.8486 177.471 34.3799C177.471 33.8818 177.31 33.4912 176.988 33.208C176.675 32.9248 176.294 32.7832 175.845 32.7832H168.975C168.458 32.7832 168.057 32.9443 167.774 33.2666C167.491 33.5791 167.349 33.9697 167.349 34.4385V39.7559C167.349 40.2637 167.505 40.6592 167.818 40.9424C168.14 41.2256 168.536 41.3672 169.004 41.3672H175.845V45H168.975C168.448 45 167.877 44.9072 167.261 44.7217C166.656 44.5361 166.089 44.2383 165.562 43.8281C165.044 43.4082 164.61 42.8662 164.258 42.2021C163.907 41.5283 163.731 40.7129 163.731 39.7559V34.4092C163.731 33.8818 163.824 33.3154 164.009 32.71C164.195 32.0947 164.493 31.5283 164.903 31.0107C165.323 30.4834 165.865 30.0439 166.529 29.6924C167.203 29.3408 168.018 29.165 168.975 29.165H175.845C176.373 29.165 176.939 29.2578 177.544 29.4434C178.16 29.6289 178.726 29.9316 179.244 30.3516C179.771 30.7617 180.21 31.3037 180.562 31.9775C180.914 32.6416 181.089 33.4521 181.089 34.4092ZM218.882 45H215.044V32.4902L208.291 44.3701C208.125 44.6729 207.891 44.9023 207.588 45.0586C207.295 45.2148 206.977 45.293 206.636 45.293C206.304 45.293 205.991 45.2148 205.698 45.0586C205.415 44.9023 205.19 44.6729 205.024 44.3701L198.242 32.4902V45H194.434V25.6201C194.434 25.1807 194.561 24.79 194.814 24.4482C195.078 24.1064 195.42 23.877 195.84 23.7598C196.045 23.7109 196.25 23.6963 196.455 23.7158C196.66 23.7256 196.855 23.7695 197.041 23.8477C197.236 23.916 197.412 24.0186 197.568 24.1553C197.725 24.2822 197.856 24.4385 197.964 24.624L206.636 39.6973L215.308 24.624C215.532 24.2529 215.84 23.9893 216.23 23.833C216.631 23.6768 217.046 23.6523 217.476 23.7598C217.886 23.877 218.223 24.1064 218.486 24.4482C218.75 24.79 218.882 25.1807 218.882 25.6201V45ZM239.455 39.7559C239.455 40.2832 239.362 40.8545 239.177 41.4697C238.991 42.0752 238.689 42.6416 238.269 43.1689C237.859 43.6865 237.317 44.1211 236.643 44.4727C235.979 44.8242 235.168 45 234.211 45H227.341C226.814 45 226.242 44.9072 225.627 44.7217C225.022 44.5361 224.455 44.2383 223.928 43.8281C223.41 43.4082 222.976 42.8662 222.624 42.2021C222.273 41.5283 222.097 40.7129 222.097 39.7559C222.097 39.2285 222.19 38.6572 222.375 38.042C222.561 37.4268 222.859 36.8604 223.269 36.3428C223.689 35.8154 224.231 35.376 224.895 35.0244C225.569 34.6729 226.384 34.4971 227.341 34.4971H234.211V38.1299H227.341C226.823 38.1299 226.423 38.291 226.14 38.6133C225.857 38.9258 225.715 39.3164 225.715 39.7852C225.715 40.2832 225.876 40.6738 226.198 40.957C226.53 41.2305 226.921 41.3672 227.37 41.3672H234.211C234.729 41.3672 235.129 41.2109 235.412 40.8984C235.695 40.5859 235.837 40.1953 235.837 39.7266V34.4092C235.837 33.9111 235.681 33.5156 235.368 33.2227C235.066 32.9297 234.68 32.7832 234.211 32.7832H225.847V29.165H234.211C234.738 29.165 235.305 29.2578 235.91 29.4434C236.526 29.6289 237.092 29.9316 237.61 30.3516C238.137 30.7617 238.576 31.3037 238.928 31.9775C239.279 32.6416 239.455 33.4521 239.455 34.4092V39.7559ZM260.556 45H256.747V36.2109C256.747 35.7129 256.66 35.2686 256.484 34.8779C256.318 34.4775 256.088 34.1357 255.795 33.8525C255.502 33.5693 255.156 33.3545 254.755 33.208C254.365 33.0518 253.94 32.9736 253.481 32.9736H246.816V45H243.007V31.0547C243.007 30.791 243.056 30.5469 243.154 30.3223C243.251 30.0879 243.388 29.8877 243.564 29.7217C243.74 29.5459 243.945 29.4092 244.179 29.3115C244.413 29.2139 244.662 29.165 244.926 29.165H253.51C253.989 29.165 254.492 29.2188 255.019 29.3262C255.556 29.4336 256.083 29.6094 256.601 29.8535C257.128 30.0879 257.626 30.3906 258.095 30.7617C258.574 31.123 258.993 31.5674 259.355 32.0947C259.726 32.6123 260.019 33.2129 260.234 33.8965C260.449 34.5801 260.556 35.3516 260.556 36.2109V45ZM280.544 39.7559C280.544 40.2832 280.451 40.8545 280.265 41.4697C280.08 42.0752 279.777 42.6416 279.357 43.1689C278.947 43.6865 278.405 44.1211 277.731 44.4727C277.067 44.8242 276.256 45 275.299 45H268.429C267.902 45 267.331 44.9072 266.715 44.7217C266.11 44.5361 265.544 44.2383 265.016 43.8281C264.499 43.4082 264.064 42.8662 263.712 42.2021C263.361 41.5283 263.185 40.7129 263.185 39.7559C263.185 39.2285 263.278 38.6572 263.463 38.042C263.649 37.4268 263.947 36.8604 264.357 36.3428C264.777 35.8154 265.319 35.376 265.983 35.0244C266.657 34.6729 267.472 34.4971 268.429 34.4971H275.299V38.1299H268.429C267.912 38.1299 267.511 38.291 267.228 38.6133C266.945 38.9258 266.803 39.3164 266.803 39.7852C266.803 40.2832 266.964 40.6738 267.287 40.957C267.619 41.2305 268.009 41.3672 268.459 41.3672H275.299C275.817 41.3672 276.217 41.2109 276.501 40.8984C276.784 40.5859 276.925 40.1953 276.925 39.7266V34.4092C276.925 33.9111 276.769 33.5156 276.457 33.2227C276.154 32.9297 275.768 32.7832 275.299 32.7832H266.935V29.165H275.299C275.827 29.165 276.393 29.2578 276.999 29.4434C277.614 29.6289 278.18 29.9316 278.698 30.3516C279.225 30.7617 279.665 31.3037 280.016 31.9775C280.368 32.6416 280.544 33.4521 280.544 34.4092V39.7559ZM301.322 46.5234C301.322 47.1777 301.239 47.7637 301.073 48.2812C300.907 48.8086 300.687 49.2676 300.414 49.6582C300.14 50.0586 299.823 50.3955 299.462 50.6689C299.1 50.9521 298.719 51.1816 298.319 51.3574C297.928 51.5332 297.528 51.6602 297.118 51.7383C296.718 51.8262 296.337 51.8701 295.975 51.8701H289.105V48.0615H295.975C296.493 48.0615 296.879 47.9297 297.133 47.666C297.386 47.4023 297.513 47.0215 297.513 46.5234V34.4971C297.513 33.999 297.386 33.623 297.133 33.3691C296.879 33.1055 296.493 32.9736 295.975 32.9736H289.105C288.636 32.9736 288.265 33.1201 287.992 33.4131C287.719 33.6963 287.582 34.0576 287.582 34.4971V39.6533C287.582 40.1514 287.714 40.5322 287.977 40.7959C288.241 41.0596 288.627 41.1914 289.135 41.1914H295.975V45H289.105C288.744 45 288.363 44.9609 287.963 44.8828C287.562 44.7949 287.162 44.6631 286.761 44.4873C286.371 44.3115 285.995 44.0869 285.634 43.8135C285.272 43.5303 284.955 43.1934 284.681 42.8027C284.408 42.4023 284.188 41.9434 284.022 41.4258C283.856 40.8984 283.773 40.3076 283.773 39.6533V34.4971C283.773 34.1357 283.812 33.7549 283.89 33.3545C283.978 32.9541 284.11 32.5586 284.286 32.168C284.462 31.7676 284.686 31.3867 284.96 31.0254C285.243 30.6641 285.58 30.3467 285.97 30.0732C286.371 29.7998 286.83 29.5801 287.347 29.4141C287.865 29.248 288.451 29.165 289.105 29.165H295.975C296.337 29.165 296.718 29.209 297.118 29.2969C297.528 29.375 297.928 29.502 298.319 29.6777C298.719 29.8535 299.1 30.083 299.462 30.3662C299.823 30.6396 300.14 30.9766 300.414 31.377C300.687 31.7676 300.907 32.2217 301.073 32.7393C301.239 33.2568 301.322 33.8428 301.322 34.4971V46.5234ZM322.144 34.4092C322.144 34.9365 322.052 35.5078 321.866 36.123C321.681 36.7285 321.378 37.2949 320.958 37.8223C320.548 38.3398 320.006 38.7744 319.332 39.126C318.668 39.4775 317.857 39.6533 316.9 39.6533H310.03V36.0352H316.9C317.418 36.0352 317.818 35.8789 318.102 35.5664C318.385 35.2441 318.526 34.8486 318.526 34.3799C318.526 33.8818 318.365 33.4912 318.043 33.208C317.73 32.9248 317.35 32.7832 316.9 32.7832H310.03C309.513 32.7832 309.112 32.9443 308.829 33.2666C308.546 33.5791 308.404 33.9697 308.404 34.4385V39.7559C308.404 40.2637 308.561 40.6592 308.873 40.9424C309.195 41.2256 309.591 41.3672 310.06 41.3672H316.9V45H310.03C309.503 45 308.932 44.9072 308.316 44.7217C307.711 44.5361 307.144 44.2383 306.617 43.8281C306.1 43.4082 305.665 42.8662 305.313 42.2021C304.962 41.5283 304.786 40.7129 304.786 39.7559V34.4092C304.786 33.8818 304.879 33.3154 305.064 32.71C305.25 32.0947 305.548 31.5283 305.958 31.0107C306.378 30.4834 306.92 30.0439 307.584 29.6924C308.258 29.3408 309.073 29.165 310.03 29.165H316.9C317.428 29.165 317.994 29.2578 318.6 29.4434C319.215 29.6289 319.781 29.9316 320.299 30.3516C320.826 30.7617 321.266 31.3037 321.617 31.9775C321.969 32.6416 322.144 33.4521 322.144 34.4092ZM338.865 32.9736H330.296C329.778 32.9736 329.388 33.1055 329.124 33.3691C328.861 33.623 328.729 33.999 328.729 34.4971V45H324.92V34.4971C324.92 33.8428 325.003 33.2568 325.169 32.7393C325.335 32.2217 325.555 31.7676 325.828 31.377C326.111 30.9766 326.434 30.6396 326.795 30.3662C327.156 30.083 327.532 29.8535 327.923 29.6777C328.323 29.502 328.724 29.375 329.124 29.2969C329.534 29.209 329.915 29.165 330.267 29.165H338.865V32.9736ZM372.659 43.0811C372.659 43.3545 372.61 43.6084 372.512 43.8428C372.415 44.0771 372.278 44.2822 372.102 44.458C371.936 44.624 371.736 44.7559 371.502 44.8535C371.267 44.9512 371.013 45 370.74 45H357C356.648 45 356.267 44.9609 355.857 44.8828C355.457 44.7949 355.056 44.6631 354.656 44.4873C354.265 44.3115 353.889 44.0869 353.528 43.8135C353.167 43.5303 352.844 43.1934 352.561 42.8027C352.288 42.4023 352.068 41.9434 351.902 41.4258C351.736 40.8984 351.653 40.3076 351.653 39.6533V29.3408C351.653 28.9893 351.692 28.6133 351.77 28.2129C351.858 27.8027 351.99 27.4023 352.166 27.0117C352.341 26.6113 352.571 26.2305 352.854 25.8691C353.137 25.5078 353.474 25.1904 353.865 24.917C354.265 24.6338 354.724 24.4092 355.242 24.2432C355.759 24.0771 356.345 23.9941 357 23.9941H372.483V27.8027H357C356.502 27.8027 356.121 27.9346 355.857 28.1982C355.593 28.4619 355.461 28.8525 355.461 29.3701V39.6533C355.461 40.1416 355.593 40.5225 355.857 40.7959C356.13 41.0596 356.511 41.1914 357 41.1914H368.85V36.416H358.713V32.5781H370.74C371.013 32.5781 371.267 32.6318 371.502 32.7393C371.736 32.8369 371.936 32.9736 372.102 33.1494C372.278 33.3252 372.415 33.5303 372.512 33.7646C372.61 33.9893 372.659 34.2334 372.659 34.4971V43.0811ZM397.51 43.0811C397.51 43.3545 397.461 43.6084 397.363 43.8428C397.265 44.0771 397.129 44.2822 396.953 44.458C396.777 44.624 396.572 44.7559 396.338 44.8535C396.103 44.9512 395.854 45 395.591 45H387.007C386.196 45 385.376 44.9121 384.546 44.7363C383.716 44.5605 382.91 44.292 382.129 43.9307C381.357 43.5596 380.63 43.0908 379.946 42.5244C379.262 41.958 378.662 41.2891 378.144 40.5176C377.636 39.7363 377.236 38.8477 376.943 37.8516C376.65 36.8457 376.504 35.7275 376.504 34.4971V23.9941H380.312V34.4971C380.312 35.5713 380.459 36.4795 380.752 37.2217C381.054 37.9639 381.435 38.584 381.894 39.082C382.353 39.5801 382.856 39.9707 383.403 40.2539C383.95 40.5371 384.468 40.7471 384.956 40.8838C385.454 41.0205 385.888 41.1084 386.26 41.1475C386.64 41.1768 386.889 41.1914 387.007 41.1914H393.701V23.9941H397.51V43.0811ZM406.086 45H402.277V23.9941H406.086V45Z" fill="white"/>
<defs>
<linearGradient id="paint0_linear_628_1177" x1="-17.8336" y1="38.548" x2="83.5042" y2="38.548" gradientUnits="userSpaceOnUse">
<stop stop-color="#36FFE6"/>
<stop offset="1" stop-color="#C07AF6"/>
</linearGradient>
</defs>
</svg>
