<svg width="369" height="71" viewBox="0 0 369 71" fill="none" xmlns="http://www.w3.org/2000/svg">
<path d="M95.8218 14.3789C102.902 14.3789 108.59 17.9678 108.883 24.1934H104.855C104.562 19.9453 100.021 18.4805 95.8462 18.4316C91.2563 18.4072 87.1548 20.0674 87.1304 24.6084C87.0571 35.2529 109.42 27.3428 109.42 40.9902C109.42 48.6807 102.365 50.9756 96.188 50.9756C88.9126 50.9756 82.4185 47.9238 82.3208 41.0146H86.3735C86.52 45.2871 91.6226 46.9473 96.2612 46.9229C100.241 46.8984 105.246 46.166 105.27 41.0146C105.294 31.6641 83.1753 39.208 83.0776 24.8037C83.0288 17.9434 88.8638 14.3789 95.8218 14.3789ZM112.803 24.9014H116.539V26.0977C116.539 27.6113 116.343 28.9785 115.855 30.1016L116.172 30.2969C117.515 27.3184 120.03 24.9014 125.132 24.9014C129.844 24.9014 133.091 27.2695 134.166 30.7852L134.532 30.834C135.923 27.4648 139.024 24.9014 143.589 24.9014C150.474 24.9014 154.112 28.5146 154.112 37.1084V50.9756H150.083V37.1328C150.083 32.0303 148.423 28.9297 142.979 28.9297C137.852 28.9297 135.386 31.6885 135.386 37.8896V50.9756H131.333V37.2061C131.358 32.0547 129.576 28.9297 124.449 28.9297C119.444 28.9297 116.832 31.542 116.832 37.9385V50.9756H112.803V24.9014ZM166.21 24.9014H171.386C176.44 24.9014 178.833 27.1719 178.833 31.8594V45.0186C178.833 46.6543 179.467 46.9961 180.688 46.9961H181.298L181.25 50.9756H178.1C175.585 50.9756 175.634 49.0957 175.903 47.3379L175.561 47.1914C174.877 48.7783 173.095 51.293 167.626 51.293C161.45 51.293 157.69 48.8027 157.495 42.6504C157.519 36.498 162.231 33.6416 167.968 33.6904C172.851 33.7393 174.951 36.1074 175.561 37.3281L175.952 37.1084C175.463 36.0098 174.829 33.9346 174.853 32.1523C174.877 29.7842 173.388 28.8564 170.874 28.8564H166.406C163.964 28.8564 162.28 29.2227 162.207 31.542H158.618C158.691 28.5146 160.571 24.9014 166.21 24.9014ZM168.115 37.6455C163.818 37.6455 161.547 38.8418 161.547 42.5771C161.547 46.6299 163.964 47.2891 168.139 47.2891C172.338 47.3135 174.755 46.6055 174.78 42.3818C174.78 38.9883 172.46 37.6455 168.115 37.6455ZM184.706 24.9014H188.441V26.0977C188.441 27.5625 188.27 28.9541 187.757 30.1016L188.075 30.2969C189.173 27.8066 191.834 24.9258 197.279 24.9014L198.426 24.9258V29.0029C197.035 28.9785 196.791 28.9785 196.546 28.9785C191.273 29.2227 188.734 32.3232 188.734 37.9873V50.9756H184.706V24.9014ZM201.077 16.4053H205.105V22.0693C205.105 23.8516 204.69 26 204.104 26.8789L204.348 27.0986C205.349 25.6826 206.814 24.9014 208.816 24.9014H212.454V28.4414H208.376C206.96 28.4414 205.105 29.0029 205.105 31.835L205.129 41.7471C205.129 45.3359 206.106 47.0693 210.11 47.0693H212.991V51.1465H209.255C203.787 51.1221 201.077 48.1436 201.077 42.2354V16.4053ZM234.318 14.3789C244.181 14.3789 250.407 19.1152 251.774 28.5146H247.697C246.671 21.8984 243.083 18.4561 234.318 18.4316C224.113 18.3828 220.426 23.3145 220.426 32.7871C220.426 42.2598 223.942 46.9229 234.318 46.9229C243.083 46.9229 246.647 43.3584 247.672 36.8398H251.725C250.309 46.166 243.986 50.9756 234.367 50.9756C223.039 50.9756 216.374 45.043 216.374 32.7871C216.374 20.7266 223.356 14.3789 234.318 14.3789ZM263.873 24.9014H269.048C274.102 24.9014 276.495 27.1719 276.495 31.8594V45.0186C276.495 46.6543 277.129 46.9961 278.35 46.9961H278.96L278.912 50.9756H275.762C273.248 50.9756 273.296 49.0957 273.565 47.3379L273.223 47.1914C272.54 48.7783 270.757 51.293 265.289 51.293C259.112 51.293 255.352 48.8027 255.157 42.6504C255.181 36.498 259.893 33.6416 265.63 33.6904C270.513 33.7393 272.613 36.1074 273.223 37.3281L273.614 37.1084C273.125 36.0098 272.491 33.9346 272.515 32.1523C272.54 29.7842 271.05 28.8564 268.536 28.8564H264.068C261.626 28.8564 259.942 29.2227 259.869 31.542H256.28C256.353 28.5146 258.233 24.9014 263.873 24.9014ZM265.777 37.6455C261.48 37.6455 259.209 38.8418 259.209 42.5771C259.209 46.6299 261.626 47.2891 265.801 47.2891C270 47.3135 272.417 46.6055 272.442 42.3818C272.442 38.9883 270.123 37.6455 265.777 37.6455ZM293.696 24.9014C301.069 24.9014 305.488 28.3438 306.098 35.2773H302.045C301.459 31.127 299.531 28.9297 293.647 28.9297C286.933 28.9297 284.956 32.4453 284.931 37.9629C284.931 43.4805 286.64 47.1182 293.574 47.1182C299.531 47.1182 301.484 45.0186 302.094 40.8682H306.123C305.634 47.6064 301.118 51.1465 293.696 51.1465C285.883 51.0977 280.903 47.0938 280.903 37.9629C280.903 29.2227 285.664 24.9014 293.696 24.9014ZM309.53 14.3789H313.534V24.2422C313.534 27.001 312.997 29.1006 312.557 30.1016L312.899 30.2969C314.144 27.4893 316.83 24.9014 322.372 24.9014C330.013 24.9014 334.017 28.5146 334.066 37.084L334.042 51H330.038V37.1816C330.038 31.957 328.109 28.9541 322.005 28.9297C316.244 28.9297 313.558 31.6641 313.558 37.9873L313.534 51H309.53V14.3789ZM350.266 24.9014C359.275 24.9258 362.766 29.9795 362.693 38.9639H341.526C341.746 43.9688 343.845 47.0938 350.046 47.0938C356.077 47.0693 358.176 45.2139 358.665 41.3076H362.693C362.083 47.3135 357.883 51.1465 350.144 51.1465C342.405 51.0977 337.473 47.0938 337.473 37.9629C337.473 29.6621 341.892 24.9014 350.266 24.9014ZM350.193 28.9541C344.163 28.9541 342.185 31.5664 341.697 35.8389H358.567C358.152 31.9326 356.98 28.9541 350.193 28.9541Z" fill="white"/>
<path d="M53.3457 57.6996H23.0402C10.7072 57.6996 0.515538 47.813 0.444711 35.4803C0.373561 23.0969 10.4268 13 22.794 13H31.8266C31.8266 17.8518 27.8933 21.7851 23.0415 21.7851H22.9671C15.4992 21.7851 9.3023 27.7482 9.22985 35.2161C9.15676 42.7567 15.2696 48.9148 22.7937 48.9148H53.2293C56.6096 48.9148 59.4537 46.2531 59.5339 42.8741C59.6164 39.3929 56.8085 36.5346 53.3457 36.5346H43.8035C37.3459 36.5346 31.9576 31.407 31.8589 24.9504C31.7587 18.3787 37.0756 13.0003 43.6246 13.0003H63.7237C63.7237 17.8521 59.7904 21.7855 54.9385 21.7855H43.7039C42.0357 21.7855 40.6153 23.1503 40.6431 24.8181C40.6703 26.4394 41.9972 27.7498 43.6246 27.7498H53.1546C61.399 27.7498 68.2401 34.3332 68.32 42.5773C68.4009 50.9015 61.6522 57.6996 53.3457 57.6996Z" fill="#F9AD6E"/>
<path d="M21.4802 40.4838C24.3159 40.4838 26.6147 38.185 26.6147 35.3493C26.6147 32.5136 24.3159 30.2148 21.4802 30.2148C18.6445 30.2148 16.3457 32.5136 16.3457 35.3493C16.3457 38.185 18.6445 40.4838 21.4802 40.4838Z" fill="white"/>
</svg>
